<?xml version="1.0" encoding="UTF-8"?>
<svg id="Layer_1" data-name="Layer 1" xmlns="http://www.w3.org/2000/svg" viewBox="0 0 1024 1024">
  <defs>
    <style>
      .cls-1 {
        fill: #fff;
        stroke: #231f20;
        stroke-miterlimit: 10;
      }
    </style>
  </defs>
  <rect class="cls-1" width="1024" height="1024"/>
  <polygon points="320.47 420.37 303.46 472.89 293.13 504.83 348.52 521.8 366.55 466.08 375.6 438.11 320.47 420.37"/>
  <g>
    <polygon points="539.15 388.98 559.69 305.89 563.53 290.28 539.05 284.26 507.31 276.43 507.31 276.48 504.46 287.95 484.54 368.65 479.19 390.33 535.42 404.11 539.15 388.98"/>
    <polygon points="450.59 506.14 437.34 559.72 429.3 592.31 485.75 605.32 499.79 548.46 506.83 519.92 450.59 506.14"/>
    <polygon points="271.43 893.26 316.39 929.83 359.97 871.42 312.69 837.97 271.43 893.26"/>
    <polygon points="519.39 577.25 510.63 612.67 506.27 630.26 500.72 652.82 534.13 701.89 581.98 669.19 519.39 577.25"/>
    <polygon points="649.1 767.8 601.26 800.5 650.99 873.55 698.83 840.86 649.1 767.8"/>
    <polygon points="705.85 579.51 731.15 527.42 655.32 490.52 628.41 541.81 628.41 541.81 669.68 561.91 669.68 561.91 669.68 561.91 705.85 579.51"/>
    <polygon points="613.05 428.65 558.23 447.28 552.34 429.26 578.55 316.28 613.05 428.65"/>
    <circle cx="566.39" cy="184.11" r="80.92"/>
    <circle cx="492.8" cy="452.81" r="30.74"/>
    <path d="M434.77,364.41c16.93,1.2,31.64-11.55,32.84-28.49,1.2-16.94-11.55-31.64-28.49-32.84-16.93-1.2-31.64,11.55-32.84,28.49-1.2,16.93,11.55,31.64,28.49,32.84Z"/>
    <path d="M370.11,410.62c16.93,1.2,31.64-11.55,32.84-28.49,1.2-16.94-11.55-31.64-28.49-32.84-16.93-1.2-31.64,11.55-32.84,28.49-1.2,16.93,11.55,31.64,28.49,32.84Z"/>
    <path d="M764.12,546.51c-16.98,0-30.74,13.76-30.74,30.74s13.76,30.74,30.74,30.74,30.74-13.76,30.74-30.74-13.76-30.74-30.74-30.74Z"/>
    <path d="M601.04,454.57c-16.98,0-30.74,13.76-30.74,30.74s13.76,30.74,30.74,30.74,30.74-13.76,30.74-30.74-13.76-30.74-30.74-30.74Z"/>
    <path d="M443.69,626.13c-16.98,0-30.74,13.76-30.74,30.74,0,3.3.53,6.47,1.49,9.45,3.99,12.35,15.57,21.29,29.25,21.29.27,0,.53-.03.8-.04,16.61-.43,29.94-13.99,29.94-30.7s-13.76-30.74-30.74-30.74Z"/>
    <path d="M417.62,711.03c-16.98,0-30.74,13.76-30.74,30.74,0,.9.06,1.78.13,2.66,1.35,15.73,14.53,28.08,30.61,28.08,2.65,0,5.22-.37,7.67-1.01,13.26-3.41,23.07-15.41,23.07-29.74,0-16.98-13.76-30.74-30.74-30.74Z"/>
    <circle cx="371.63" cy="809.84" r="30.74" transform="translate(-518.78 843.27) rotate(-67.5)"/>
    <path d="M619.72,730.9c0-16.98-13.76-30.74-30.74-30.74s-30.74,13.76-30.74,30.74,13.76,30.74,30.74,30.74,30.74-13.76,30.74-30.74Z"/>
    <circle cx="708.47" cy="905.88" r="30.74" transform="translate(-399.57 1213.76) rotate(-67.5)"/>
  </g>
</svg>